<?xml version="1.0" encoding="UTF-8"?>
<svg version="1.1" xmlns="http://www.w3.org/2000/svg" width="523" height="432">
<path d="M0 0 C172.59 0 345.18 0 523 0 C523 142.56 523 285.12 523 432 C350.41 432 177.82 432 0 432 C0 289.44 0 146.88 0 0 Z " fill="#000000" transform="translate(0,0)"/>
<path d="M0 0 C4.8174643 3.8292665 7.20368572 8.77468665 9.9609375 14.16015625 C12.5114906 17.71236335 14.83583793 19.75901572 19 21 C23.57827828 21.36627702 28.10278372 21.19519814 32.6875 21 C35.1073561 20.89795019 37.52805277 20.81381986 39.94921875 20.75 C41.54769653 20.68039063 41.54769653 20.68039063 43.1784668 20.609375 C46.74182584 21.10270151 47.8249885 22.1954048 50 25 C51.58907292 29.76721877 51.96708312 33.86633061 49.8828125 38.46484375 C49.42648437 39.30144531 48.97015625 40.13804687 48.5 41 C45.92653553 45.75944707 45.27095981 48.62332857 46 54 C47.24677063 56.46811352 47.24677063 56.46811352 49 59 C52.2462621 65.48088885 54.72286661 71.76203525 53 79 C50.91616284 84.13875619 48.12362262 88.92392285 45.33496094 93.70507812 C43.98028106 96.03389869 42.66381884 98.38143052 41.3515625 100.734375 C40.4862263 102.2614672 39.61909214 103.78754224 38.75 105.3125 C38.15082764 106.3789978 38.15082764 106.3789978 37.53955078 107.46704102 C33.12845068 115.02175714 27.43932931 118.76443801 19 121 C13.05372366 121.53849346 7.14497211 121.46759501 1.1796875 121.390625 C-0.53237238 121.38315141 -2.2444409 121.37746377 -3.95651245 121.37347412 C-8.4315614 121.35830562 -12.90607924 121.31910132 -17.38092041 121.2746582 C-21.95960306 121.23351432 -26.53837271 121.21542255 -31.1171875 121.1953125 C-40.07835652 121.1525971 -49.03913385 121.08445427 -58 121 C-58 120.34 -58 119.68 -58 119 C-57.42894531 118.79246094 -56.85789063 118.58492188 -56.26953125 118.37109375 C-51.05646834 116.3902956 -46.37015039 114.08513354 -41.5625 111.25 C-35.53106347 107.95432669 -30.80322527 106.63935495 -24 108 C-21.62794749 108.90639405 -19.40283363 109.95442774 -17.13671875 111.09765625 C-13.55588595 112.60985438 -10.84437823 112.46397668 -7 112 C-5.20663702 111.02923244 -5.20663702 111.02923244 -4 109 C-3.40049404 106.28629428 -2.94060081 103.68072944 -2.5625 100.9375 C0.03569876 84.72985097 6.74098318 74.64318097 19.98779297 64.92993164 C24.9164774 61.28347851 29.51861494 57.74389485 30.625 51.4375 C30.20940343 47.91939338 30.20940343 47.91939338 28.125 45.0625 C23.63116623 42.09656971 20.24335676 42.20318052 15 43 C11.65491659 43.90824083 8.3809486 44.9561745 5.08984375 46.04296875 C1.0191541 47.30380183 -2.7555832 47.83996461 -7 48 C-8.58167969 48.05994141 -8.58167969 48.05994141 -10.1953125 48.12109375 C-16.19898573 48.23733799 -21.35233256 48.10145765 -27 46 C-27 45.34 -27 44.68 -27 44 C-27.928125 43.6596875 -27.928125 43.6596875 -28.875 43.3125 C-31.67417035 41.58360067 -32.10812102 40.12157643 -33 37 C-33 35.68 -33 34.36 -33 33 C-33.66 33 -34.32 33 -35 33 C-35.03738281 32.27554688 -35.07476562 31.55109375 -35.11328125 30.8046875 C-35.47942512 22.87440507 -35.47942512 22.87440507 -39 16 C-45.52361879 14.13610892 -51.48098656 15.54999885 -58 17 C-57.66888874 14.08492245 -57.08726302 13.0823514 -54.91796875 11.03515625 C-40.77937634 0.82057948 -16.71884612 -9.85303756 0 0 Z " fill="#3FAED8" transform="translate(271,114)"/>
<path d="M0 0 C0.33 0 0.66 0 1 0 C1.226875 1.11375 1.45375 2.2275 1.6875 3.375 C2.79220257 7.86585611 4.72389705 11.72736623 6.87890625 15.80078125 C9.47964084 20.90257072 10.04504955 25.39660934 9 31 C6.98013314 36.15690471 4.11894211 40.93194758 1.33496094 45.70507812 C-0.01971894 48.03389869 -1.33618116 50.38143052 -2.6484375 52.734375 C-3.5137737 54.2614672 -4.38090786 55.78754224 -5.25 57.3125 C-5.84917236 58.3789978 -5.84917236 58.3789978 -6.46044922 59.46704102 C-10.87154932 67.02175714 -16.56067069 70.76443801 -25 73 C-30.94627634 73.53849346 -36.85502789 73.46759501 -42.8203125 73.390625 C-44.53237238 73.38315141 -46.2444409 73.37746377 -47.95651245 73.37347412 C-52.4315614 73.35830562 -56.90607924 73.31910132 -61.38092041 73.2746582 C-65.95960306 73.23351432 -70.53837271 73.21542255 -75.1171875 73.1953125 C-84.07835652 73.1525971 -93.03913385 73.08445427 -102 73 C-102 72.34 -102 71.68 -102 71 C-101.42894531 70.79246094 -100.85789063 70.58492188 -100.26953125 70.37109375 C-95.05646834 68.3902956 -90.37015039 66.08513354 -85.5625 63.25 C-79.53106347 59.95432669 -74.80322527 58.63935495 -68 60 C-65.62794749 60.90639405 -63.40283363 61.95442774 -61.13671875 63.09765625 C-57.55588595 64.60985438 -54.84437823 64.46397668 -51 64 C-49.20663702 63.02923244 -49.20663702 63.02923244 -48 61 C-47.40049404 58.28629428 -46.94060081 55.68072944 -46.5625 52.9375 C-43.96430124 36.72985097 -37.25901682 26.64318097 -24.01220703 16.92993164 C-18.88053983 13.1333031 -14.54276184 9.01016434 -12 3 C-10.51242679 11.66832785 -13.22390007 17.195389 -17.71069336 24.33984375 C-18.11425049 24.98695313 -18.51780762 25.6340625 -18.93359375 26.30078125 C-19.4913147 27.15410034 -19.4913147 27.15410034 -20.06030273 28.0246582 C-21.375572 30.55586655 -21.375572 30.55586655 -22 36 C-16.72 36 -11.44 36 -6 36 C-5.01 33.03 -5.01 33.03 -4 30 C-4.66 30 -5.32 30 -6 30 C-7.54130495 26.9173901 -7.22561558 23.69279069 -7.25 20.3125 C-7.270625 19.61705078 -7.29125 18.92160156 -7.3125 18.20507812 C-7.36742666 10.85177159 -5.00939018 5.5103292 0 0 Z " fill="#CF516E" transform="translate(315,162)"/>
<path d="M0 0 C7.15964551 17.29068539 8.4422722 31.44951648 8 50 C-0.31276528 51.76371369 -8.9679929 51.9886538 -17 49 C-17 48.34 -17 47.68 -17 47 C-17.928125 46.6596875 -17.928125 46.6596875 -18.875 46.3125 C-21.67417035 44.58360067 -22.10812102 43.12157643 -23 40 C-23 38.68 -23 37.36 -23 36 C-23.66 36 -24.32 36 -25 36 C-25.03738281 35.27554688 -25.07476562 34.55109375 -25.11328125 33.8046875 C-25.47942512 25.87440507 -25.47942512 25.87440507 -29 19 C-35.52361879 17.13610892 -41.48098656 18.54999885 -48 20 C-47.66888874 17.08492245 -47.08726302 16.0823514 -44.91796875 14.03515625 C-31.47512023 4.32322707 -16.69537257 -0.90335683 0 0 Z " fill="#F1B94E" transform="translate(261,111)"/>
<path d="M0 0 C172.59 0 345.18 0 523 0 C523 0.99 523 1.98 523 3 C350.41 3 177.82 3 0 3 C0 2.01 0 1.02 0 0 Z " fill="#DDDDDD" transform="translate(0,429)"/>
<path d="M0 0 C172.59 0 345.18 0 523 0 C523 0.99 523 1.98 523 3 C350.41 3 177.82 3 0 3 C0 2.01 0 1.02 0 0 Z " fill="#DDDDDD" transform="translate(0,0)"/>
<path d="M0 0 C0 5.28 0 10.56 0 16 C-0.66 16 -1.32 16 -2 16 C-2.103125 17.010625 -2.20625 18.02125 -2.3125 19.0625 C-3.40207867 25.30281417 -6.25386324 30.62376597 -9.1328125 36.203125 C-10.65606065 39.35940496 -11.10523356 41.79037643 -10.9921875 45.23828125 C-10.96705078 46.46901367 -10.96705078 46.46901367 -10.94140625 47.72460938 C-10.89743029 49.43837827 -10.84545504 51.15196213 -10.78515625 52.86523438 C-10.64047951 61.27621401 -13.33914471 65.64364543 -19.125 71.75 C-22.44772812 75.10329541 -22.44772812 75.10329541 -25 79 C-25.66 79 -26.32 79 -27 79 C-26.68950274 77.56206608 -26.3765224 76.1246682 -26.0625 74.6875 C-25.88847656 73.88699219 -25.71445313 73.08648437 -25.53515625 72.26171875 C-25 70 -25 70 -24 67 C-23.43582789 62.22765884 -23.40017009 58.95597892 -26 54.8125 C-28.96024328 49.97343073 -29.53972864 44.89303242 -28.64941406 39.30664062 C-25.12321424 26.78200306 -14.81037952 9.66597487 -5 1 C-3.28648936 0.44562891 -1.80399792 0 0 0 Z " fill="#A4369F" transform="translate(232,143)"/>
<path d="M0 0 C0.33 0 0.66 0 1 0 C1.226875 1.11375 1.45375 2.2275 1.6875 3.375 C2.79220257 7.86585611 4.72389705 11.72736623 6.87890625 15.80078125 C9.47964084 20.90257072 10.04504955 25.39660934 9 31 C6.98013314 36.15690471 4.11894211 40.93194758 1.33496094 45.70507812 C-0.01971894 48.03389869 -1.33618116 50.38143052 -2.6484375 52.734375 C-3.5137737 54.2614672 -4.38090786 55.78754224 -5.25 57.3125 C-5.64944824 58.02349854 -6.04889648 58.73449707 -6.46044922 59.46704102 C-10.03908816 65.59603394 -14.33181409 69.30435038 -21 72 C-23.18359375 71.57421875 -23.18359375 71.57421875 -25 71 C-24.71801758 70.52167725 -24.43603516 70.04335449 -24.14550781 69.55053711 C-22.84652737 67.34647263 -21.54825986 65.141989 -20.25 62.9375 C-19.8065625 62.18533203 -19.363125 61.43316406 -18.90625 60.65820312 C-17.6007558 58.44078283 -16.29953445 56.22091744 -15 54 C-14.61166992 53.34008057 -14.22333984 52.68016113 -13.82324219 52.00024414 C-11.73090284 48.40528529 -10.17056256 44.99942209 -9 41 C-8.34 41 -7.68 41 -7 41 C-6.01 37.37 -5.02 33.74 -4 30 C-4.66 30 -5.32 30 -6 30 C-7.54130495 26.9173901 -7.22561558 23.69279069 -7.25 20.3125 C-7.270625 19.61705078 -7.29125 18.92160156 -7.3125 18.20507812 C-7.36742666 10.85177159 -5.00939018 5.5103292 0 0 Z " fill="#9A2D68" transform="translate(315,162)"/>
<path d="M0 0 C0.33 0 0.66 0 1 0 C2.76484641 10.28404331 -1.82151865 16.8319941 -7.01074219 25.19384766 C-8.17741044 27.17302083 -8.17741044 27.17302083 -8.9765625 30.29296875 C-10.3067237 33.81129589 -11.7595471 34.18008178 -15 36 C-17.33971006 38.2345464 -19.47329561 40.64797327 -21.625 43.0625 C-22.76017072 44.32678361 -23.89808985 45.5886062 -25.0390625 46.84765625 C-25.53615723 47.40461182 -26.03325195 47.96156738 -26.54541016 48.53540039 C-28 50 -28 50 -31 52 C-32.20450304 54.55183404 -32.20450304 54.55183404 -33 57 C-35.54884085 51.90231831 -32.66705737 43.50059202 -31.25390625 38.203125 C-27.43637773 27.54797874 -19.92566941 20.46574546 -11.01220703 13.92993164 C-6.54808623 10.6271827 -2.04077703 7.04227131 -0.1875 1.625 C-0.0946875 0.820625 -0.0946875 0.820625 0 0 Z " fill="#E77929" transform="translate(302,165)"/>
<path d="M0 0 C2.51625 -0.103125 5.0325 -0.20625 7.625 -0.3125 C8.79603271 -0.38078003 8.79603271 -0.38078003 9.99072266 -0.45043945 C13.84579413 -0.52628816 16.36149094 -0.16222348 19.48046875 2.20703125 C22.1349425 5.14958743 22.80246872 6.12736953 22.6875 10 C22.45880771 13.8363132 22.09442845 14.87494611 19.6875 18.0625 C13.73259305 22.35557245 7.08081087 21.06496157 0 21 C0 14.07 0 7.14 0 0 Z " fill="#BA2838" transform="translate(471,265)"/>
<path d="M0 0 C5.03053686 0.08736099 7.48280162 1.09077577 11.25 4.375 C13.22618943 8.32737886 12.67010667 13.06572396 12.25 17.375 C10.9375 20.0625 10.9375 20.0625 8.25 21.375 C3.25637395 22.02033014 -1.1502388 22.06061194 -5.8125 20.0625 C-8.98497437 17.29937716 -9.72153501 15.72796593 -10.0625 11.5 C-9.90484764 4.90285517 -6.79288431 0.10292249 0 0 Z " fill="#C32B3C" transform="translate(352.75,264.625)"/>
<path d="M0 0 C3.02286884 1.38548155 4.66871425 2.66871425 7 5 C7.63806625 9.77611357 7.53927696 14.81019302 5 19 C2.10631425 20.79282704 -0.11764517 21.27316681 -3.5 21.25 C-4.2528125 21.25515625 -5.005625 21.2603125 -5.78125 21.265625 C-9.37089706 20.83587852 -11.42259291 19.6805155 -13.75 16.9375 C-15.48414332 12.86226319 -15.8042116 9.36008841 -15 5 C-11.33948527 -0.97884073 -6.41334156 -0.99153636 0 0 Z " fill="#BC2839" transform="translate(250,265)"/>
<path d="M0 0 C2.64 0 5.28 0 8 0 C8 2.31 8 4.62 8 7 C9.98 7 11.96 7 14 7 C14 4.69 14 2.38 14 0 C16.64 0 19.28 0 22 0 C22 6.93 22 13.86 22 21 C19.03 21 16.06 21 13 21 C13 18.69 13 16.38 13 14 C11.35 14 9.7 14 8 14 C8 16.31 8 18.62 8 21 C5.36 21 2.72 21 0 21 C0 14.07 0 7.14 0 0 Z " fill="#B52737" transform="translate(62,265)"/>
<path d="M0 0 C1.05960937 0.00676758 1.05960937 0.00676758 2.140625 0.01367188 C3.88545275 0.02546125 5.630237 0.04339676 7.375 0.0625 C7.375 2.3725 7.375 4.6825 7.375 7.0625 C6.055 7.0625 4.735 7.0625 3.375 7.0625 C3.375 7.7225 3.375 8.3825 3.375 9.0625 C4.365 9.3925 5.355 9.7225 6.375 10.0625 C7.125 13.3125 7.125 13.3125 7.375 17.0625 C5.875 19.28125 5.875 19.28125 3.375 21.0625 C0.63817029 21.3536521 -1.66440039 21.44572418 -4.375 21.3125 C-5.07238281 21.29445313 -5.76976562 21.27640625 -6.48828125 21.2578125 C-8.20111539 21.21088554 -9.91323824 21.13914605 -11.625 21.0625 C-11.61339844 20.505625 -11.60179687 19.94875 -11.58984375 19.375 C-11.54264977 15.38373739 -11.63877806 11.62730873 -12.3125 7.6875 C-12.625 4.0625 -12.625 4.0625 -11.3125 2.125 C-7.5518558 -0.24281302 -4.32830178 -0.05190768 0 0 Z " fill="#BD2A3A" transform="translate(276.625,264.9375)"/>
<path d="M0 0 C3.96 0 7.92 0 12 0 C15.25635056 6.94688119 18 13.20255603 18 21 C10.41 21 2.82 21 -5 21 C-4.30237069 15.41896555 -3.61585158 11.19747586 -1.9375 6 C-1.57527344 4.865625 -1.21304688 3.73125 -0.83984375 2.5625 C-0.56269531 1.716875 -0.28554687 0.87125 0 0 Z " fill="#C12A3B" transform="translate(168,265)"/>
<path d="M0 0 C0 5.28 0 10.56 0 16 C-0.33 16 -0.66 16 -1 16 C-1.33 13.36 -1.66 10.72 -2 8 C-2.99 9.485 -2.99 9.485 -4 11 C-4.66 11 -5.32 11 -6 11 C-6.23332031 11.6290625 -6.46664062 12.258125 -6.70703125 12.90625 C-8.5036136 17.20502107 -10.59625431 21.33816001 -12.6875 25.5 C-13.13085693 26.38695557 -13.57421387 27.27391113 -14.03100586 28.18774414 C-17.11850364 34.33430149 -20.33459973 40.38419859 -23.72265625 46.37109375 C-24.97654742 48.95173215 -25.58442631 51.17307278 -26 54 C-29.09159211 49.36261184 -29.36546957 44.88209006 -28.6171875 39.37109375 C-25.36847215 26.89026959 -14.71245268 9.57947143 -5 1 C-3.28648936 0.44562891 -1.80399792 0 0 0 Z " fill="#752666" transform="translate(232,143)"/>
<path d="M0 0 C2.64 0 5.28 0 8 0 C8.33 4.29 8.66 8.58 9 13 C9.99 13.33 10.98 13.66 12 14 C12 9.38 12 4.76 12 0 C14.97 0 17.94 0 21 0 C21.16276553 2.56506424 21.28113984 5.11975422 21.375 7.6875 C21.45041016 8.7693457 21.45041016 8.7693457 21.52734375 9.87304688 C21.61104698 12.92821494 21.66576605 15.10677738 19.79589844 17.61547852 C16.90052497 20.1923609 14.38616879 21.68218273 10.5 21.5625 C9.43265625 21.56443359 9.43265625 21.56443359 8.34375 21.56640625 C4.75384666 20.69884628 2.73314886 19.50343977 0 17 C-0.73280616 14.05116704 -0.57001341 11.26520729 -0.375 8.25 C-0.34792969 7.45722656 -0.32085937 6.66445313 -0.29296875 5.84765625 C-0.22247273 3.89726634 -0.11485499 1.94828099 0 0 Z " fill="#BA2939" transform="translate(372,265)"/>
<path d="M0 0 C1.48831242 0.00667405 2.97660807 0.01863442 4.46484375 0.03515625 C5.22345703 0.03966797 5.98207031 0.04417969 6.76367188 0.04882812 C8.64326246 0.06064945 10.52281274 0.07858547 12.40234375 0.09765625 C12.40234375 2.40765625 12.40234375 4.71765625 12.40234375 7.09765625 C11.41234375 7.09765625 10.42234375 7.09765625 9.40234375 7.09765625 C9.40234375 7.75765625 9.40234375 8.41765625 9.40234375 9.09765625 C10.39234375 9.42765625 11.38234375 9.75765625 12.40234375 10.09765625 C13.7333046 16.51046764 13.7333046 16.51046764 12.43359375 18.81640625 C9.22980129 20.83725995 5.87333052 20.40976846 2.21484375 20.28515625 C1.46525391 20.27162109 0.71566406 20.25808594 -0.05664062 20.24414062 C-1.90395392 20.20884164 -3.75089691 20.15503542 -5.59765625 20.09765625 C-5.59765625 18.44765625 -5.59765625 16.79765625 -5.59765625 15.09765625 C-2.29765625 15.09765625 1.00234375 15.09765625 4.40234375 15.09765625 C4.40234375 14.43765625 4.40234375 13.77765625 4.40234375 13.09765625 C3.49484375 13.15953125 2.58734375 13.22140625 1.65234375 13.28515625 C-1.59765625 13.09765625 -1.59765625 13.09765625 -4.03515625 12.16015625 C-5.98746735 9.5831056 -5.72090849 8.62528784 -5.41015625 5.47265625 C-4.6227893 0.12548288 -4.6227893 0.12548288 0 0 Z " fill="#BC293A" transform="translate(322.59765625,264.90234375)"/>
<path d="M0 0 C8.57142857 -0.28571429 8.57142857 -0.28571429 12 2 C12.33 1.34 12.66 0.68 13 0 C15.97 0 18.94 0 22 0 C20 4 20 4 18 7 C17.29242641 12.30680193 18.92461551 14.77134633 22 19 C22 19.66 22 20.32 22 21 C19.03 21 16.06 21 13 21 C12.67 20.01 12.34 19.02 12 18 C11.278125 18.33 10.55625 18.66 9.8125 19 C6.98302573 20.00603529 4.97104534 20.16977402 2 20 C2.144375 19.505 2.28875 19.01 2.4375 18.5 C4.33744604 11.29741044 4.33744604 11.29741044 2.0625 4.625 C1.381875 3.75875 0.70125 2.8925 0 2 C0 1.34 0 0.68 0 0 Z " fill="#B82838" transform="translate(442,265)"/>
<path d="M0 0 C1.62490954 -0.02698189 3.24994633 -0.04638757 4.875 -0.0625 C5.77992187 -0.07410156 6.68484375 -0.08570313 7.6171875 -0.09765625 C10 0 10 0 12 1 C12.59765625 3.22265625 12.59765625 3.22265625 13.0625 6.0625 C13.30806641 7.54363281 13.30806641 7.54363281 13.55859375 9.0546875 C14.1046749 12.6984502 14.58553895 16.3389274 15 20 C13.00045254 20.04254356 10.99958364 20.04080783 9 20 C8.67 19.67 8.34 19.34 8 19 C5 18.83333333 5 18.83333333 2 19 C1.67 19.33 1.34 19.66 1 20 C-0.99958364 20.04080783 -3.00045254 20.04254356 -5 20 C-4.0026554 12.95992045 -2.7758018 6.56098608 0 0 Z " fill="#BD2839" transform="translate(97,265)"/>
<path d="M0 0 C6.6 0 13.2 0 20 0 C20 2.97 20 5.94 20 9 C18.35 9 16.7 9 15 9 C15 13.29 15 17.58 15 22 C12.03 22 9.06 22 6 22 C6 17.71 6 13.42 6 9 C4.02 9 2.04 9 0 9 C0 6.03 0 3.06 0 0 Z " fill="#CC3142" transform="translate(290,264)"/>
<path d="M0 0 C0 2.31 0 4.62 0 7 C-4.455 7.495 -4.455 7.495 -9 8 C-9 9.32 -9 10.64 -9 12 C-5.7 12.33 -2.4 12.66 1 13 C1 15.64 1 18.28 1 21 C-0.89510699 21.08160748 -2.79124504 21.13946459 -4.6875 21.1875 C-6.27111328 21.23970703 -6.27111328 21.23970703 -7.88671875 21.29296875 C-12.38816657 20.86936952 -14.96379489 19.20890597 -17.875 15.8125 C-19.5137552 11.71561199 -18.97249497 9.30676344 -18 5 C-14.24578798 -0.92770319 -6.18666775 -0.24746671 0 0 Z " fill="#B62737" transform="translate(54,265)"/>
<path d="M0 0 C1.28849854 0.73778687 1.28849854 0.73778687 2.60302734 1.49047852 C6.25591293 3.11372069 8.3966025 3.30391001 12.3515625 3.15234375 C14.12273437 3.11077148 14.12273437 3.11077148 15.9296875 3.06835938 C18.4011727 2.98083849 20.87253129 2.88966923 23.34375 2.79492188 C25.11105469 2.7552832 25.11105469 2.7552832 26.9140625 2.71484375 C28.5220874 2.65478149 28.5220874 2.65478149 30.16259766 2.59350586 C33.67473702 3.0966647 34.79519441 4.30165563 37 7 C36.67 7.99 36.34 8.98 36 10 C28.61796509 13.06985875 20.01207402 15.42436871 12 14 C6.56284169 11.49054232 3.07925655 7.04473945 0 2 C0 1.34 0 0.68 0 0 Z " fill="#E4B453" transform="translate(284,132)"/>
<path d="M0 0 C2.05078125 0.03255208 4.1015625 0.06510417 6.15234375 0.09765625 C6.15234375 5.04765625 6.15234375 9.99765625 6.15234375 15.09765625 C9.45234375 15.09765625 12.75234375 15.09765625 16.15234375 15.09765625 C16.15234375 17.40765625 16.15234375 19.71765625 16.15234375 22.09765625 C9.88234375 22.09765625 3.61234375 22.09765625 -2.84765625 22.09765625 C-2.87448826 18.6184389 -2.89441295 15.13942586 -2.91015625 11.66015625 C-2.91853516 10.66693359 -2.92691406 9.67371094 -2.93554688 8.65039062 C-2.93876953 7.70615234 -2.94199219 6.76191406 -2.9453125 5.7890625 C-2.95054932 4.91451416 -2.95578613 4.03996582 -2.96118164 3.13891602 C-2.8145865 0.50304074 -2.64429521 0.1397619 0 0 Z " fill="#A72130" transform="translate(212.84765625,263.90234375)"/>
<path d="M0 0 C2.64 0 5.28 0 8 0 C8 4.62 8 9.24 8 14 C11.3 14 14.6 14 18 14 C18 16.31 18 18.62 18 21 C12.06 21 6.12 21 0 21 C0 14.07 0 7.14 0 0 Z " fill="#B22333" transform="translate(400,265)"/>
<path d="M0 0 C6.27 0 12.54 0 19 0 C19 2.31 19 4.62 19 7 C17.02 7 15.04 7 13 7 C13 11.29 13 15.58 13 20 C10.69 20 8.38 20 6 20 C6 16.04 6 12.08 6 8 C4.02 8 2.04 8 0 8 C0 5.36 0 2.72 0 0 Z " fill="#C52F3F" transform="translate(120,265)"/>
<path d="M0 0 C6.6 0 13.2 0 20 0 C20 2.97 20 5.94 20 9 C18.35 9 16.7 9 15 9 C15 13.29 15 17.58 15 22 C12.03 22 9.06 22 6 22 C6 17.71 6 13.42 6 9 C4.02 9 2.04 9 0 9 C0 6.03 0 3.06 0 0 Z M1 1 C1 3.31 1 5.62 1 8 C3.475 8.495 3.475 8.495 6 9 C6.33 12.63 6.66 16.26 7 20 C8.65 20.33 10.3 20.66 12 21 C13.73956658 19.26043342 13.37190386 16.8063378 13.5625 14.4375 C13.64628906 13.42558594 13.73007812 12.41367187 13.81640625 11.37109375 C13.87699219 10.58863281 13.93757813 9.80617188 14 9 C15.65 8.67 17.3 8.34 19 8 C19 5.69 19 3.38 19 1 C13.06 1 7.12 1 1 1 Z " fill="#6B1620" transform="translate(290,264)"/>
<path d="M0 0 C0.66 0.33 1.32 0.66 2 1 C3.26761762 5.29581527 4 8.50944298 4 13 C-3.59 13 -11.18 13 -19 13 C-18 5 -18 5 -16 2 C-16.33 4.97 -16.66 7.94 -17 11 C-15.35 11.33 -13.7 11.66 -12 12 C-12 11.01 -12 10.02 -12 9 C-5.9453125 8.8046875 -5.9453125 8.8046875 -4 9 C-3.34 9.66 -2.68 10.32 -2 11 C0.57061311 11.64767793 0.57061311 11.64767793 3 12 C2.5359375 11.2575 2.5359375 11.2575 2.0625 10.5 C0.58355618 7.02013219 0.37597149 3.75971491 0 0 Z " fill="#6E101C" transform="translate(182,273)"/>
<path d="M0 0 C1.485 0.99 1.485 0.99 3 2 C5.32387947 2.39387788 7.65793749 2.73486085 10 3 C10 3.99 10 4.98 10 6 C7.36 6.33 4.72 6.66 2 7 C1.67 7.99 1.34 8.98 1 10 C2.93784265 9.85879286 4.87526955 9.71187127 6.8125 9.5625 C7.89144531 9.48128906 8.97039062 9.40007812 10.08203125 9.31640625 C13.05989905 9.09787539 13.05989905 9.09787539 16 8 C17.22520264 4.99152582 17.22520264 4.99152582 18 2 C18.33 2 18.66 2 19 2 C18.6875 5.375 18.6875 5.375 18 9 C14.31912647 11.45391569 11.55644412 11.22802759 7.3125 11.125 C6.2596582 11.11146484 6.2596582 11.11146484 5.18554688 11.09765625 C3.45688475 11.07413704 1.72839855 11.03826713 0 11 C0 7.37 0 3.74 0 0 Z " fill="#8C1424" transform="translate(265,275)"/>
<path d="M0 0 C0.99 0 1.98 0 3 0 C3.33 0.99 3.66 1.98 4 3 C5.49985609 4.66710346 5.49985609 4.66710346 7 6 C6.360625 6.268125 5.72125 6.53625 5.0625 6.8125 C2.66868314 7.88667752 2.66868314 7.88667752 2 11 C0.02 9.68 -1.96 8.36 -4 7 C-2.79618552 4.50638429 -1.54571278 2.31856917 0 0 Z " fill="#3A88C1" transform="translate(294,115)"/>
<path d="M0 0 C0.33 0 0.66 0 1 0 C0.70510964 4.48436724 0.37451978 8.20601806 -1.5625 12.3125 C-3.6011297 17.54202836 -3.24591726 22.45319966 -3 28 C-5.50577842 25.49422158 -5.28673131 23.9059617 -5.32226562 20.47851562 C-5.31904297 19.76373047 -5.31582031 19.04894531 -5.3125 18.3125 C-5.32861328 17.61705078 -5.34472656 16.92160156 -5.36132812 16.20507812 C-5.36731881 9.78905829 -3.58334319 5.37501478 0 0 Z " fill="#8A4BB2" transform="translate(313,164)"/>
<path d="M0 0 C0.33 0 0.66 0 1 0 C1 2.97 1 5.94 1 9 C-0.65 9.33 -2.3 9.66 -4 10 C-4.33 13.63 -4.66 17.26 -5 21 C-7.97 21 -10.94 21 -14 21 C-14 16.71 -14 12.42 -14 8 C-13.67 8 -13.34 8 -13 8 C-13 11.96 -13 15.92 -13 20 C-10.69 20 -8.38 20 -6 20 C-6 15.71 -6 11.42 -6 7 C-4.02 7 -2.04 7 0 7 C0 4.69 0 2.38 0 0 Z " fill="#591019" transform="translate(139,265)"/>
<path d="M0 0 C4.875 0.875 4.875 0.875 6 2 C6.04092937 4.33297433 6.04241723 6.66705225 6 9 C4.35 9.33 2.7 9.66 1 10 C-0.1577506 6.52674819 -0.06866652 3.63932552 0 0 Z " fill="#110D05" transform="translate(256,128)"/>
<path d="M0 0 C0.33 0 0.66 0 1 0 C1.12117188 1.04800781 1.24234375 2.09601563 1.3671875 3.17578125 C1.53603945 4.55473886 1.70533341 5.93364239 1.875 7.3125 C1.95363281 8.00279297 2.03226562 8.69308594 2.11328125 9.40429688 C2.55943847 12.95639471 2.97980193 14.9697029 5 18 C9.67177177 18.91903707 13.36148096 19.30458348 18 18 C16.38021124 19.93860432 15.45827059 20.9031085 12.94921875 21.43359375 C11.82966797 21.43552734 11.82966797 21.43552734 10.6875 21.4375 C9.94886719 21.45683594 9.21023438 21.47617187 8.44921875 21.49609375 C4.75490789 20.74780431 2.77589611 19.5614492 0 17 C-0.73159649 14.05076337 -0.57002409 11.26537251 -0.375 8.25 C-0.34792969 7.45722656 -0.32085937 6.66445313 -0.29296875 5.84765625 C-0.22247273 3.89726634 -0.11485499 1.94828099 0 0 Z " fill="#861724" transform="translate(372,265)"/>
<path d="M0 0 C0.66 0.33 1.32 0.66 2 1 C1.01 2.32 0.02 3.64 -1 5 C2.3 5 5.6 5 9 5 C9 5.33 9 5.66 9 6 C6.89679937 6.50404808 4.79240209 7.00310508 2.6875 7.5 C0.92986328 7.91765625 0.92986328 7.91765625 -0.86328125 8.34375 C-4 9 -4 9 -7 9 C-6.82374165 6.62051228 -6.30280227 5.29774151 -4.59765625 3.62109375 C-3.09350908 2.37884514 -1.54870149 1.18623944 0 0 Z " fill="#B38F3D" transform="translate(220,122)"/>
<path d="M0 0 C1.32 0 2.64 0 4 0 C4 4.62 4 9.24 4 14 C2.68 13.67 1.36 13.34 0 13 C0 8.71 0 4.42 0 0 Z " fill="#310B0F" transform="translate(380,265)"/>
<path d="M0 0 C1.65 0 3.3 0 5 0 C5.625 2.375 5.625 2.375 6 5 C5.34 5.66 4.68 6.32 4 7 C2.68 7 1.36 7 0 7 C0 4.69 0 2.38 0 0 Z " fill="#370B10" transform="translate(479,272)"/>
<path d="M0 0 C1.67542976 0.28604898 3.34385343 0.61781233 5 1 C5 2.65 5 4.3 5 6 C3.34385343 6.38218767 1.67542976 6.71395102 0 7 C-1 6 -1 6 -1.125 3.5 C-1 1 -1 1 0 0 Z " fill="#2C090D" transform="translate(352,272)"/>
<path d="M0 0 C0 5.28 0 10.56 0 16 C-0.33 16 -0.66 16 -1 16 C-1.33 13.36 -1.66 10.72 -2 8 C-2.99 8.99 -3.98 9.98 -5 11 C-4.66666667 9.33333333 -4.33333333 7.66666667 -4 6 C-3.855625 5.0925 -3.71125 4.185 -3.5625 3.25 C-3.376875 2.5075 -3.19125 1.765 -3 1 C-1 0 -1 0 0 0 Z " fill="#651BA3" transform="translate(232,143)"/>
<path d="M0 0 C1.67542976 0.28604898 3.34385343 0.61781233 5 1 C5 2.65 5 4.3 5 6 C3.02 6 1.04 6 -1 6 C-1.042721 4.33388095 -1.04063832 2.66617115 -1 1 C-0.67 0.67 -0.34 0.34 0 0 Z " fill="#24070B" transform="translate(244,272)"/>
<path d="M0 0 C0.99 0 1.98 0 3 0 C3.33 1.98 3.66 3.96 4 6 C1.69 6 -0.62 6 -3 6 C-2 4 -1 2 0 0 Z " fill="#28A4BD" transform="translate(294,115)"/>
<path d="M0 0 C0 3 0 3 -1.14453125 4.67578125 C-3.72620145 6.51827851 -5.55242989 6.29814953 -8.6875 6.1875 C-9.68136719 6.16042969 -10.67523438 6.13335937 -11.69921875 6.10546875 C-12.45847656 6.07066406 -13.21773438 6.03585937 -14 6 C-14.33 5.34 -14.66 4.68 -15 4 C-13.205625 4.0928125 -13.205625 4.0928125 -11.375 4.1875 C-7.25680815 4.20212946 -4.54849094 3.16371399 -1 1 C-0.67 0.67 -0.34 0.34 0 0 Z " fill="#6E0E1A" transform="translate(364,280)"/>
<path d="M0 0 C6.52307692 0.61538462 6.52307692 0.61538462 8.9375 2.5625 C9.288125 3.036875 9.63875 3.51125 10 4 C7.69 3.67 5.38 3.34 3 3 C3 4.65 3 6.3 3 8 C0.4345406 5.4345406 0.45953913 3.52313332 0 0 Z " fill="#43C8A6" transform="translate(261,111)"/>
<path d="M0 0 C1.485 0.99 1.485 0.99 3 2 C5.32387947 2.39387788 7.65793749 2.73486085 10 3 C10 3.66 10 4.32 10 5 C6.7 5 3.4 5 0 5 C0 3.35 0 1.7 0 0 Z " fill="#500E16" transform="translate(265,275)"/>
<path d="M0 0 C0.33 0 0.66 0 1 0 C1.08142927 1.7492214 1.13938541 3.49954542 1.1875 5.25 C1.23970703 6.71179688 1.23970703 6.71179688 1.29296875 8.203125 C0.96075202 11.37468742 0.11327721 12.67040307 -2 15 C-2.22577402 9.5814234 -1.46670113 5.22512279 0 0 Z " fill="#CD8C4A" transform="translate(302,165)"/>
<path d="M0 0 C0.99 0.33 1.98 0.66 3 1 C3 2.98 3 4.96 3 7 C1.68 7.33 0.36 7.66 -1 8 C-0.67 5.36 -0.34 2.72 0 0 Z " fill="#122D2A" transform="translate(274,127)"/>
<path d="M0 0 C2.31 0 4.62 0 7 0 C7.66 1.32 8.32 2.64 9 4 C7.68 4 6.36 4 5 4 C4.67 4.99 4.34 5.98 4 7 C3.87625 6.195625 3.7525 5.39125 3.625 4.5625 C3.315625 3.2940625 3.315625 3.2940625 3 2 C2.34 1.67 1.68 1.34 1 1 C0.67 1.66 0.34 2.32 0 3 C0 2.01 0 1.02 0 0 Z " fill="#2AA8A7" transform="translate(273,126)"/>
<path d="M0 0 C0.33 0 0.66 0 1 0 C1.19335938 0.61488281 1.38671875 1.22976563 1.5859375 1.86328125 C1.84632813 2.67152344 2.10671875 3.47976563 2.375 4.3125 C2.63023437 5.11300781 2.88546875 5.91351563 3.1484375 6.73828125 C3.98831811 9.22724528 3.98831811 9.22724528 6 12 C4.125 11.6875 4.125 11.6875 2 11 C-0.67927341 6.98108988 -0.15601248 4.75838077 0 0 Z " fill="#9D1C2C" transform="translate(343,272)"/>
<path d="M0 0 C0.33 0 0.66 0 1 0 C1 2.31 1 4.62 1 7 C-0.65 7.33 -2.3 7.66 -4 8 C-5 5 -5 5 -4.0625 2.8125 C-3.5365625 1.9153125 -3.5365625 1.9153125 -3 1 C-3 2.65 -3 4.3 -3 6 C-2.01 6 -1.02 6 0 6 C0 4.02 0 2.04 0 0 Z " fill="#644D20" transform="translate(261,130)"/>
<path d="M0 0 C0.33 0 0.66 0 1 0 C1 1.98 1 3.96 1 6 C0.01 6.495 0.01 6.495 -1 7 C-1.66 7.99 -2.32 8.98 -3 10 C-3.23226952 6.59338044 -3.35720302 4.59016151 -1.5625 1.625 C-0.7890625 0.820625 -0.7890625 0.820625 0 0 Z " fill="#8053C0" transform="translate(313,164)"/>
<path d="M0 0 C-1.28519565 2.86697492 -2.57129254 4.97607712 -5 7 C-5.66 7 -6.32 7 -7 7 C-3.86206897 0 -3.86206897 0 0 0 Z " fill="#4F1D58" transform="translate(229,144)"/>
<path d="M0 0 C1.45606519 4.52092968 0.27032841 7.51648796 -1 12 C-1.66 12 -2.32 12 -3 12 C-2.68950274 10.56206608 -2.3765224 9.1246682 -2.0625 7.6875 C-1.88847656 6.88699219 -1.71445313 6.08648437 -1.53515625 5.26171875 C-1 3 -1 3 0 0 Z " fill="#6B293E" transform="translate(208,210)"/>
<path d="M0 0 C0.99 0.33 1.98 0.66 3 1 C3 2.32 3 3.64 3 5 C1.68 5 0.36 5 -1 5 C-0.67 3.35 -0.34 1.7 0 0 Z " fill="#701620" transform="translate(173,274)"/>
</svg>
